<?xml version="1.0" encoding="UTF-8"?><svg id="Layer_1" xmlns="http://www.w3.org/2000/svg" viewBox="0 0 523.83 229.7"><path d="m81.36,142.91v-42.43h-14.88v-19.1h14.88v-22.65h24.68v22.65h17.41v19.1h-17.41v38.88c0,6.76,2.03,11.33,11.16,11.33,1.86,0,3.38,0,6.93-.34v18.43c-3.89,1.01-8.62,1.69-13.52,1.69-17.58,0-29.25-7.95-29.25-27.56Z"/><path d="m177.55,150.52c10.31,0,18.43-5.92,18.43-19.27v-49.87h24.68v87.91h-24.68v-18.43h-1.01c-1.52,8.28-9.97,20.12-28.06,20.12-17.07,0-30.26-10.99-30.26-33.81v-55.79h24.68v49.87c0,13.36,5.92,19.27,16.23,19.27Z"/><path d="m231.48,81.38h25.19l21.98,64.24h.85l21.98-64.24h25.02l-31.95,87.91h-31.11l-31.95-87.91Z"/><path d="m327.51,145.96c0-19.44,15.89-23.67,31.11-25.87l14.88-2.2c8.11-1.18,10.65-2.54,10.65-7.44v-1.18c0-9.3-6.09-11.83-13.69-11.83s-15.05,2.54-15.05,11.66v1.69h-23.16v-4.06c0-17.24,11.5-27.05,38.88-27.05s37.19,9.47,37.19,28.57v61.03h-23.5v-15.55h-1.01c-1.69,4.73-8.79,17.24-28.06,17.24-14.37,0-28.23-6.93-28.23-25.02Zm36.68,7.44c11.66,0,19.95-7.78,19.95-14.71v-9.8c-1.35,2.03-5.58,2.71-9.47,3.38l-12.34,2.2c-7.61,1.18-10.14,4.9-10.14,9.47,0,5.41,3.55,9.47,12,9.47Z"/><path d="m439.25,81.38c9.97,0,18.09,7.78,18.09,17.75s-8.11,17.75-18.09,17.75-18.09-7.78-18.09-17.75,8.11-17.75,18.09-17.75Zm-18.09,71.85c0-9.97,8.11-17.75,18.09-17.75s18.09,7.78,18.09,17.75-8.11,17.75-18.09,17.75-18.09-7.78-18.09-17.75Z"/></svg>